<svg xmlns="http://www.w3.org/2000/svg" width="28.52" height="28.52" viewBox="0 0 28.52 28.52"><defs><style>.a{fill:#682300;}</style></defs><path class="a" d="M91.671,82.555H74.68a3.6,3.6,0,0,0-6.645,0H65.383a1.04,1.04,0,1,0,0,2.074h2.652a3.6,3.6,0,0,0,6.645,0H91.671a1.04,1.04,0,1,0,0-2.074ZM71.357,84.777a1.188,1.188,0,1,1,1.274-1.184A1.233,1.233,0,0,1,71.357,84.777Z" transform="translate(-64.267 -80.334)"/><path class="a" d="M91.671,211.088H89.019a3.6,3.6,0,0,0-6.645,0H65.383a1.04,1.04,0,1,0,0,2.074H82.374a3.6,3.6,0,0,0,6.645,0h2.652a1.04,1.04,0,1,0,0-2.074ZM85.7,213.31a1.188,1.188,0,1,1,1.274-1.184A1.233,1.233,0,0,1,85.7,213.31Z" transform="translate(-64.267 -197.865)"/><path class="a" d="M91.671,339.621H79.459a3.6,3.6,0,0,0-6.645,0H65.383a1.04,1.04,0,1,0,0,2.074h7.432a3.6,3.6,0,0,0,6.645,0H91.671a1.04,1.04,0,1,0,0-2.074Zm-15.534,2.221a1.188,1.188,0,1,1,1.274-1.184A1.233,1.233,0,0,1,76.137,341.843Z" transform="translate(-64.267 -315.397)"/></svg>