<?xml version="1.0" encoding="utf-8"?>
<!-- Generator: Adobe Illustrator 23.0.3, SVG Export Plug-In . SVG Version: 6.00 Build 0)  -->
<svg version="1.1" id="Layer_1" xmlns="http://www.w3.org/2000/svg" xmlns:xlink="http://www.w3.org/1999/xlink" x="0px" y="0px"
	 viewBox="0 0 245 245" style="enable-background:new 0 0 245 245;" xml:space="preserve">
<style type="text/css">
	.st0{fill:#E1F1F9;}
	.st1{fill:#98B2DC;}
	.st2{fill:#FFFFFF;}
	.st3{fill:#A8D29F;}
	.st4{fill:#D1F2C9;}
	.st5{fill:#95C38B;}
	.st6{fill:#82B378;}
	.st7{fill:#DAA520;}
	.st8{opacity:0.23;fill:#FFFFFF;}
	.st9{fill:#005414;}
	.st10{fill:#ECC538;}
	.st11{opacity:0.36;}
	.st12{fill:#DAE2EE;}
	.st13{fill:#F7B284;}
	.st14{fill:#E8A070;}
	.st15{fill:#EFA97A;}
	.st16{fill:#FCECDB;}
	.st17{fill:#F9DDBF;}
	.st18{fill:#333435;}
	.st19{fill:#5C5E61;}
	.st20{fill:#FFB93E;}
	.st21{fill:#FFA412;}
	.st22{fill:#D9DADB;}
	.st23{opacity:0.8;}
	.st24{fill:#CACBCC;}
	.st25{fill:#D7D7D7;}
	.st26{fill:#3699FF;}
	.st27{opacity:0.68;fill:none;stroke:#8E614F;stroke-width:0.75;stroke-miterlimit:10;}
	.st28{fill:none;stroke:#3699FF;stroke-width:0.5;stroke-miterlimit:10;}
	.st29{fill:#93827F;}
</style>
<g>
	<path class="st0" d="M175.8,144.1c-37.2-0.1-74.5-0.2-111.7-0.3c-0.2-0.2-0.4-0.4-0.5-0.8c-0.2-0.7,0.2-1.3,0.7-2.6
		c0.9-2.5,2.6-4.7,3.6-7.2c1.9-5,0.9-10.5,0.2-15.8c-0.6-5.3-0.6-11.2,2.8-15.3c4.5-5.2,12.3-4.8,18.7-7.2
		c9.7-3.6,14.8-15.1,26.1-15.1c8,0,14.9,6.1,20.1,11.6c5.4,5.7,10.3,5.9,17.6,3.8c3.7-1.1,7.9-2.1,11.4-0.3
		c5.9,2.9,6.3,10.1,6.8,15.6c0.6,6.9,3.1,13.7,6.3,19.8c1.5,3,3.4,6,2.4,9.2C179.5,141.7,177.4,143.2,175.8,144.1z"/>
</g>
<g>
	<g>
		<g>
			<path class="st1" d="M1205.8,255.7c0,19.6-15.9,35.5-35.5,35.5c-5.5,0-10.6-1.2-15.3-3.4c-5.6,5.2-17.3,8.1-17.3,8.1
				c4.7-4,7.4-9.5,8.8-13.8c-7.2-6.5-11.7-15.9-11.7-26.4c0-19.6,15.9-35.5,35.5-35.5C1189.9,220.2,1205.8,236.1,1205.8,255.7z"/>
			<g>
				<path class="st2" d="M1180.7,255.7c0,2.5,2,4.5,4.5,4.5c2.5,0,4.5-2,4.5-4.5c0-2.5-2-4.5-4.5-4.5
					C1182.8,251.2,1180.7,253.2,1180.7,255.7z"/>
				<path class="st2" d="M1165.8,255.7c0,2.5,2,4.5,4.5,4.5s4.5-2,4.5-4.5c0-2.5-2-4.5-4.5-4.5S1165.8,253.2,1165.8,255.7z"/>
				<path class="st2" d="M1150.8,255.7c0,2.5,2,4.5,4.5,4.5c2.5,0,4.5-2,4.5-4.5c0-2.5-2-4.5-4.5-4.5
					C1152.9,251.2,1150.8,253.2,1150.8,255.7z"/>
			</g>
		</g>
	</g>
</g>
<g>
	<g>
		<g>
			<path class="st3" d="M97.1,109.6c0,0.3-0.1,0.6-0.2,0.8c-0.4,1.1-1.3,2.2-2.8,2.8c0,0-0.9-0.3-1.6-0.9l0,0
				c-0.5-0.4-1-1.1-0.9-1.9c0.1-0.5,0.3-0.8,0.5-1c0.4-0.4,1-0.6,1.1-0.9c0.1-0.3,0.4-0.7,0.7-1c0,0,0.1-0.1,0.2-0.1l0,0
				c0,0,0,0,0.1-0.1c0,0,0,0,0,0c0.5-0.4,1.1-0.5,1.8-0.2c0.1,0.1,0.3,0.2,0.5,0.3C97,107.9,97.3,108.7,97.1,109.6z"/>
			<path class="st4" d="M92.1,110.2c0,0-0.3,0.6,0,1s0.7,0,0.6-0.4C92.7,110.4,92.3,109.9,92.1,110.2z"/>
			<path class="st5" d="M96,107.1c0.1,0.1,0.3,0.2,0.5,0.3c0.5,0.5,1.6,1.9,1.5,2.8l-0.3,0.8c-0.4,1.1-2,1.6-3.6,2.3
				c0,0-0.9-0.3-1.6-0.9l0,0c0,0,2.2-0.1,3.2-2.5C96.2,108.8,96.2,107.9,96,107.1z"/>
			<g>
				<path class="st3" d="M92.8,107.7c-0.4,0-0.6,0.4-0.9,0.7c-0.3,0.3-1,0.6-1,0.6s0.1-0.5,0.4-1.2
					C91.6,107.2,92.8,107.7,92.8,107.7z"/>
				<path class="st6" d="M92.8,107.7c-0.4-0.1-1,0-1.2,0.2c-0.2,0.2-0.7,1.1-0.7,1.1s0.1-0.5,0.4-1.2
					C91.6,107.2,92.8,107.7,92.8,107.7z"/>
			</g>
			<path class="st5" d="M93.3,108.5c0.1-0.3,0.4-0.7,0.7-1c-0.5,0.5-0.5,1.4-0.8,1.5c-0.3,0-1,0.4-1.1,0.4
				C92.6,109,93.2,108.9,93.3,108.5z"/>
			<path class="st5" d="M94.2,107.4C94.2,107.4,94.2,107.4,94.2,107.4C94.2,107.4,94.2,107.4,94.2,107.4z"/>
			<g>
				<path class="st6" d="M93.3,109L93.3,109c-0.4-0.3-0.5-0.9-0.6-1.4c0-0.3,0-0.8,0-1.1c0,0,0.1-0.1,0.1,0l0.1,0.1
					c0.1,0.1,0.1,0.2,0.1,0.4c0,0.4-0.1,1.3,0.4,1.8C93.4,108.9,93.4,109,93.3,109z"/>
			</g>
		</g>
		<g>
			<g>
				<path class="st7" d="M91.6,111.3c0.2,0.2,0.5,0.4,0.8,0.4c0.4,0,0.9,0.3,1.5,0.9c1.2,1.4-0.2,4.2-2.5,3.7
					c-3-0.7-3.7-2.7-3.5-3.8s1.4-2,2.8-1.7C91.1,110.9,91.4,111.1,91.6,111.3z"/>
				<path class="st8" d="M93.3,112.6c-0.2-0.1-0.7-0.2-0.6,0.5c0.2,0.7,0.1,1.8-0.3,2.2c-0.4,0.5,1,0.3,1.5-0.4
					C94.2,114.2,94.1,112.9,93.3,112.6z"/>
				<path class="st7" d="M91.1,111.4c-0.1,0.1,0.2,0.4,0.7,0.6c0.4,0.2,0.8,0.3,0.9,0.1c0.1-0.1-0.4-0.2-0.8-0.4
					C91.4,111.6,91.1,111.3,91.1,111.4z"/>
				<path class="st9" d="M92.1,111.9c0,0,0.7-0.9-0.1-2.2c-0.9-1.2-0.8-1.3-1.1-1c-0.2,0.3-1.2,1.4-0.1,2.6
					C91.8,112.5,92.1,111.9,92.1,111.9z"/>
				<path class="st8" d="M91.1,108.9c0,0.4,0.3,2.2,0.8,3.1c0,0-1-0.3-1.3-1.2C90.2,110,90.8,109.1,91.1,108.9
					C91,108.8,91.1,108.9,91.1,108.9z"/>
				<path class="st10" d="M91.8,112c-0.1,0.2-0.2-0.1,0.1-0.4s0.7-1.1,1.1-0.7C93.4,111.2,92.3,111.3,91.8,112z"/>
			</g>
			<g class="st11">
				<path class="st12" d="M88.2,114.2c0.6,1.7,2.5,2.6,4.2,2l0.4-0.9c-0.2,0.1-0.3,0.2-0.5,0.3c-1.4,0.5-3-0.2-3.5-1.6
					c-0.4-1.1,0-2.4,0.9-3.1l-0.6-0.3C88.1,111.5,87.7,112.9,88.2,114.2z"/>
			</g>
		</g>
		<g>
			<g>
				<path class="st13" d="M94.9,103.2l2.5,3.6l2.9,4.2c0.6,0.9,0.4,2.1-0.4,2.7c-0.8,0.6-2,0.4-2.6-0.5l-1.6-2.4l-3.7-5.4
					c-0.6-0.9-0.7-2.5,0.2-3.1C92.1,102.3,93.6,101.4,94.9,103.2z"/>
				<path class="st14" d="M93.1,106.1c0,0-0.1-1.1,1.3-2.8C94.4,103.4,94.6,104.9,93.1,106.1z"/>
				<path class="st14" d="M93.9,107.7c0,0-0.1-1.4,1.6-3.2C95.5,104.5,95.7,106.3,93.9,107.7z"/>
				<path class="st14" d="M94.8,109.1c0,0-0.1-1.4,1.6-3.2C96.4,105.9,96.6,107.6,94.8,109.1z"/>
				<path class="st14" d="M92.4,104.6c0,0-0.1-0.8,0.9-1.9C93.4,102.7,93.5,103.8,92.4,104.6z"/>
			</g>
			<path class="st15" d="M97.4,106.8l2.9,4.2c0.6,0.9,0.4,2.1-0.4,2.7c-0.8,0.6-2,0.4-2.6-0.5l-1.6-2.4c0-0.4,0.2-0.7,0.5-0.9
				C97,109.1,97.3,107.5,97.4,106.8z"/>
		</g>
		<g>
			<path class="st16" d="M99.5,109.2l7.2,11c0.9,1.4,0.3,3.2-1.2,3.9l-2.6,1.2c-1.3,0.6-2.8,0-3.3-1.3L96,112.3L99.5,109.2z"/>
			<g>
				<path class="st16" d="M90.6,113.3c0,0,4.8-0.6,8.9-4.2l5.4,15.3l-9,4.2L90.6,113.3z"/>
				<path class="st17" d="M90.6,113.3l7.2,11c0.9,1.4,0.3,3.2-1.2,3.9l-2.6,1.2c-1.3,0.6-2.8,0-3.3-1.3l-4.5-12.8
					c0,0,0.8,0.1,2.2-0.5C90,114.1,90.6,113.3,90.6,113.3z"/>
				<g>
					<path class="st17" d="M97.9,115.9c-0.2,0.1-0.4,0.2-0.7,0.2c-1.9,0.6-4-2.3-4-2.4l0.3-0.2c0,0,0,0,0,0l0,0c0,0,0.5,0.7,1.2,1.3
						c0.6,0.6,1.5,1.2,2.4,0.9c1-0.3,1.6-0.8,1.9-1.5c0.3-0.8,0.1-1.9-0.7-2.9l0.3-0.2c0.8,1.2,1.1,2.3,0.7,3.3
						C99.1,115.1,98.6,115.6,97.9,115.9z"/>
				</g>
				
					<ellipse transform="matrix(0.9062 -0.4227 0.4227 0.9062 -39.2888 50.1256)" class="st17" cx="93.4" cy="113.6" rx="0.4" ry="0.3"/>
				
					<ellipse transform="matrix(0.9062 -0.4227 0.4227 0.9062 -37.7943 52.0725)" class="st17" cx="98.5" cy="111.2" rx="0.4" ry="0.3"/>
			</g>
		</g>
	</g>
	<g>
		<g>
			<path class="st18" d="M120.4,99.3l0.8-5.3l-1.9-0.3l-0.8,5.4c-0.2,0.1-1.2,0.8-1.3,1.1c-0.1,0.4-1.5,10.2-1.8,12.3
				c0,0.3,0.1,0.5,0.3,0.6c0.4,0.2,1,0.6,1.6,0.7c0.6,0.1,1.2,0,1.6-0.1c0.2-0.1,0.4-0.3,0.4-0.5l1.9-12.4
				C121.1,100.7,121.2,100.1,120.4,99.3z"/>
			<path class="st19" d="M119.9,103.3l-2.1-0.3c-0.1,0-0.2,0.1-0.2,0.2l-0.9,5.9c0,0.1,0.1,0.2,0.2,0.3l2.1,0.3
				c0.1,0,0.2-0.1,0.2-0.2l0.9-5.9C120.1,103.5,120,103.3,119.9,103.3z"/>
			<polygon class="st19" points="120.6,97.7 118.7,97.4 119.1,94.8 121,95.1 			"/>
			<path class="st19" d="M121.2,93.3l-1.7-0.3c-0.2,0-0.3,0.1-0.3,0.2l-0.2,1.4c0,0.2,0.1,0.3,0.2,0.3l1.7,0.3
				c0.2,0,0.3-0.1,0.3-0.2l0.2-1.4C121.4,93.4,121.3,93.3,121.2,93.3z"/>
		</g>
		<g>
			<path class="st3" d="M121.5,110.5c-0.3,0.2-0.6,0.4-0.9,0.6c-1.3,0.7-3.1,0.9-5.1,0.2c0,0-0.6-1.1-0.7-2.3l0,0
				c-0.1-0.8,0.1-2,0.8-2.6c0.5-0.4,0.9-0.5,1.4-0.5c0.8,0,1.4,0.4,1.8,0.1c0.4-0.2,0.9-0.3,1.4-0.3c0.1,0,0.2,0,0.3,0l0,0
				c0,0,0.1,0,0.1,0c0,0,0,0,0,0c0.8,0.1,1.5,0.5,1.9,1.4c0.1,0.2,0.1,0.4,0.2,0.7C122.8,108.8,122.3,109.8,121.5,110.5z"/>
			<path class="st4" d="M116.3,106.6c0,0-0.8,0.3-0.8,1c0,0.7,0.6,0.6,0.9,0.2C116.7,107.4,116.8,106.5,116.3,106.6z"/>
			<path class="st5" d="M122.5,107.2c0.1,0.2,0.1,0.4,0.2,0.7c0.1,0.9-0.1,3.3-1,4l-1,0.5c-1.3,0.7-3.3-0.3-5.3-1
				c0,0-0.6-1.1-0.7-2.3l0,0c0,0,2.2,1.8,5.1,0.5C121.3,109,122.1,108,122.5,107.2z"/>
			<g>
				<path class="st3" d="M119.1,104.8c-0.3-0.4-0.8-0.2-1.4-0.1c-0.5,0-1.5-0.3-1.5-0.3s0.6-0.4,1.3-0.8
					C118.4,103.3,119.1,104.8,119.1,104.8z"/>
				<path class="st6" d="M119.1,104.8c-0.3-0.5-0.9-0.9-1.3-0.8c-0.4,0-1.5,0.4-1.5,0.4s0.6-0.4,1.3-0.8
					C118.4,103.3,119.1,104.8,119.1,104.8z"/>
			</g>
			<path class="st5" d="M118.9,106.1c0.4-0.2,0.9-0.3,1.4-0.3c-0.9,0-1.7,1-2,0.7c-0.3-0.2-1.3-0.5-1.3-0.5
				C117.8,106,118.5,106.3,118.9,106.1z"/>
			<path class="st5" d="M120.7,105.8c0,0-0.1,0-0.1,0C120.6,105.8,120.6,105.8,120.7,105.8z"/>
			<g>
				<path class="st6" d="M118.4,106.5L118.4,106.5c-0.1-0.7,0.3-1.4,0.6-1.8c0.3-0.4,0.7-0.8,0.9-1.1c0,0,0.1,0,0.1,0l0,0.2
					c0,0.2-0.1,0.3-0.2,0.5c-0.4,0.3-1.2,1.2-1.2,2.1C118.6,106.5,118.4,106.6,118.4,106.5z"/>
			</g>
		</g>
		<g>
			<g>
				<path class="st7" d="M114,106.3c-0.4,0-0.8-0.1-1.1-0.4c-0.4-0.3-1-0.5-2.2-0.4c-2.3,0.3-3.4,4.3-0.8,5.8c3.4,2,5.7,0.7,6.5-0.6
					c0.7-1.3,0.4-3.3-1.1-4.2C114.7,106.4,114.3,106.3,114,106.3z"/>
				<path class="st8" d="M111.2,106.1c0.3,0.1,0.9,0.5,0.1,1c-0.8,0.5-1.6,1.6-1.6,2.5c0,0.9-1.2-0.6-1-1.7S110.3,105.7,111.2,106.1
					z"/>
				<path class="st7" d="M114.3,107c-0.1,0.2-0.6,0.2-1.2,0c-0.6-0.2-1-0.5-0.9-0.7c0.1-0.2,0.5,0.2,1.1,0.4
					C113.8,106.8,114.4,106.8,114.3,107z"/>
				<path class="st9" d="M113,106.5c0,0,0.1-1.6,2-2s1.9-0.5,1.8,0c-0.1,0.5-0.1,2.4-2.1,2.6C112.7,107.3,113,106.5,113,106.5z"/>
				<path class="st8" d="M116.5,104.5c-0.4,0.3-2.1,1.9-3.4,2.3c0,0,1.2,0.6,2.3,0C116.4,106.3,116.5,104.9,116.5,104.5
					C116.5,104.5,116.5,104.5,116.5,104.5z"/>
				<path class="st10" d="M113.1,106.8c0,0.2,0.2,0.1,0.3-0.5s0.3-1.7-0.4-1.7C112.3,104.6,113.3,105.7,113.1,106.8z"/>
			</g>
			<g class="st11">
				<path class="st12" d="M117,108l-0.8-0.3c0.2,1.5-0.5,3-1.8,3.7c-1.7,0.9-3.8,0.2-4.7-1.6c-0.1-0.2-0.2-0.5-0.3-0.7l-0.4,1.2
					c1.1,2.1,3.6,2.9,5.7,1.8C116.2,111.3,117,109.6,117,108z"/>
			</g>
		</g>
		<g>
			<g>
				<path class="st13" d="M127.3,106.8l-3.8,4.4l-4.4,5c-0.9,1-2.5,1.1-3.5,0.2c-1-1-1.1-2.6-0.2-3.6l2.5-2.9l5.7-6.5
					c0.9-1,2.9-1.6,3.9-0.6C127.6,102.7,129.1,104.5,127.3,106.8z"/>
				<path class="st14" d="M123.1,105.1c0,0,1.4-0.5,3.8,1.1C126.9,106.2,125.1,106.9,123.1,105.1z"/>
				<path class="st14" d="M121.3,106.6c0,0,1.6-0.5,4.5,1.2C125.8,107.9,123.7,108.7,121.3,106.6z"/>
				<path class="st14" d="M119.9,108.3c0,0,1.6-0.5,4.5,1.2C124.4,109.5,122.2,110.3,119.9,108.3z"/>
				<path class="st14" d="M124.8,103.8c0,0,1-0.3,2.7,0.7C127.5,104.5,126.2,105,124.8,103.8z"/>
			</g>
			<path class="st15" d="M123.5,111.1l-4.4,5c-0.9,1-2.5,1.1-3.5,0.2c-1-1-1.1-2.6-0.2-3.6l2.5-2.9c0.5,0,0.9,0.1,1.3,0.4
				C120.6,111.3,122.6,111.2,123.5,111.1z"/>
		</g>
		<g>
			<path class="st20" d="M112.7,109.1c-0.2,1.4-0.7,2.7-1.5,4c-0.1,0.2-0.3,0.4-0.6,0.4c-0.1,0-0.2,0-0.3,0
				c-0.2-0.1-0.5-0.7-0.5-1.4c0-0.2,0-0.4,0.1-0.5c0.3-1.3,0.5-3,0.3-4.1c-0.2-1.1-0.6-2.4-1.3-3.5c0,0,0,0,0,0
				c-0.1-0.1-1.6-3.2-1.6-3.2c-0.1-0.4,0.3-0.5,0.3-0.5s0.1,0.3,0.6,1.1c0.5,0.8,2,0.9,2,0.9c0.4,0,0.8,0.2,1.1,0.6
				c0.4,0.6,0.8,1.5,1.1,2.6C112.8,106.7,112.9,107.9,112.7,109.1z"/>
			<path class="st21" d="M110,111.6c0.3-1.3,0.5-3,0.3-4.1c-0.2-1.1-0.6-2.4-1.3-3.5c0,0,0,0,0,0c0,0-0.5-0.9,0.6-1
				c1-0.1,2.5,5.2,0.4,9.2C109.9,111.9,109.9,111.7,110,111.6z"/>
		</g>
		<g>
			<path class="st16" d="M124,112.3l-2.8,17.1c-0.3,2.1-2.4,3.4-4.5,2.7l-3.4-1.1c-1.7-0.6-2.6-2.5-1.9-4.2l6.6-14.6L124,112.3z"/>
			<g>
				<path class="st16" d="M112.2,108.3c0,0,4.9,3.7,11.9,3.9l-8.1,19.6l-11.9-4L112.2,108.3z"/>
				<path class="st17" d="M112.2,108.3l-2.8,17.1c-0.3,2.1-2.4,3.4-4.5,2.7l-3.4-1.1c-1.7-0.6-2.6-2.5-1.9-4.2l6.8-16.4
					c0,0,0.6,0.8,2.5,1.5C110.9,108.5,112.2,108.3,112.2,108.3z"/>
				<g>
					<path class="st17" d="M116.7,117.3c-0.3-0.1-0.6-0.2-0.8-0.4c-2.3-1.2-1.7-5.8-1.7-5.9l0.5,0.1c0,0,0,0,0,0l0,0
						c0,0-0.1,1.1,0,2.4c0.1,1.1,0.4,2.5,1.4,3c1.1,0.6,2.2,0.7,3,0.2c1-0.5,1.7-1.8,1.9-3.4l0.5,0.1c-0.2,1.9-1,3.2-2.2,3.8
						C118.6,117.6,117.7,117.7,116.7,117.3z"/>
				</g>
				
					<ellipse transform="matrix(0.9535 -0.3015 0.3015 0.9535 -28.1663 39.6881)" class="st17" cx="114.5" cy="111.1" rx="0.4" ry="0.5"/>
				
					<ellipse transform="matrix(0.9535 -0.3014 0.3014 0.9535 -28.53 41.8424)" class="st17" cx="121.3" cy="113.4" rx="0.4" ry="0.5"/>
			</g>
		</g>
	</g>
	<g>
		<rect x="86.6" y="126.2" class="st22" width="41.2" height="12"/>
		<rect x="88.9" y="128.9" class="st2" width="20.7" height="1.7"/>
		<rect x="88.9" y="133.1" class="st2" width="35.6" height="2.3"/>
	</g>
	<g class="st23">
		<path class="st24" d="M125.1,128c0,0-0.1,0-0.1,0l-4.3,0.1l-0.1-0.3c0,0-0.1-0.1-0.1-0.1l-0.6,0c-0.1,0-0.1,0-0.1,0.1
			s0.1,0.1,0.1,0.1l0.5,0l0.9,2.9c0,0,0.1,0.1,0.1,0.1l3,0c0.1,0,0.1,0,0.1-0.1c0-0.1-0.1-0.1-0.1-0.1l-2.9,0l-0.2-0.8l3.2,0
			c0.1,0,0.1,0,0.1-0.1l0.5-1.6C125.1,128,125.1,128,125.1,128z"/>
		<path class="st24" d="M121.9,131c-0.2,0-0.4,0.2-0.4,0.4s0.2,0.4,0.4,0.4c0.2,0,0.5-0.2,0.5-0.4S122.1,131,121.9,131z
			 M121.9,131.6c-0.1,0-0.2-0.1-0.2-0.2c0-0.1,0.1-0.2,0.2-0.2c0.1,0,0.2,0.1,0.2,0.2C122.1,131.5,122,131.6,121.9,131.6z"/>
		<path class="st24" d="M123.9,131c-0.3,0-0.5,0.2-0.5,0.4c0,0.2,0.2,0.5,0.5,0.5c0.3,0,0.5-0.2,0.5-0.4
			C124.3,131.2,124.1,131,123.9,131z M123.9,131.7c-0.1,0-0.2-0.1-0.2-0.2c0-0.1,0.1-0.2,0.2-0.2c0.1,0,0.2,0.1,0.2,0.2
			S124,131.7,123.9,131.7z"/>
	</g>
</g>
<g>
	<g>
		<g>
			
				<rect x="122.4" y="83" transform="matrix(0.855 -0.5186 0.5186 0.855 -26.4837 76.2638)" class="st25" width="1.5" height="4.9"/>
		</g>
		<g>
			<path class="st1" d="M129.4,95.8c-0.6,0.3-1.3,0.2-1.7-0.4l-5-8.2c-0.3-0.6-0.2-1.3,0.4-1.7c0.6-0.3,1.3-0.2,1.7,0.4l5,8.2
				C130.2,94.7,130,95.4,129.4,95.8z"/>
		</g>
		<g class="st11">
			<path class="st25" d="M121.3,83.8l0.5,0.9c0.2-0.1,0.4-0.2,0.6-0.3c0.2-0.1,0.4-0.3,0.6-0.4l-0.5-0.9L121.3,83.8z"/>
		</g>
		<g>
			<path class="st1" d="M122.3,84c-3.7,2.3-8.6,1.1-10.9-2.7c-2.3-3.7-1.1-8.6,2.7-10.9c3.7-2.3,8.6-1.1,10.9,2.7
				C127.2,76.9,126,81.8,122.3,84z M114.8,71.7c-3,1.8-4,5.8-2.2,8.9c1.8,3,5.8,4,8.9,2.2c3-1.8,4-5.8,2.2-8.9
				C121.8,70.9,117.8,69.9,114.8,71.7z"/>
		</g>
		<g class="st11">
			<path class="st12" d="M114.8,71.7c-3,1.8-4,5.8-2.2,8.9c1.8,3,5.8,4,8.9,2.2c3-1.8,4-5.8,2.2-8.9
				C121.8,70.9,117.8,69.9,114.8,71.7z"/>
		</g>
		<g>
			<path class="st2" d="M114.2,74c0,0.1,0,0.1-0.1,0.2c0,0-1.2,1.6-1,3.5c0,0.3-0.1,0.5-0.4,0.5c-0.3,0-0.5-0.1-0.5-0.4
				c-0.3-2.3,1.1-4.1,1.2-4.2c0.2-0.2,0.5-0.2,0.7-0.1C114.2,73.6,114.3,73.8,114.2,74z"/>
		</g>
	</g>
</g>
<g>
	<path class="st26" d="M159.4,100.5c0.2,0,0.3-0.1,0.4-0.2c0.1-0.1,0.2-0.3,0.2-0.4l-0.1-2.1c-0.1-1.6-0.6-2.9-1.4-3.9
		c-0.9-1-2.1-2-3.8-3c-1.4-0.9-2.5-1.8-3.2-2.5c-0.7-0.8-1.1-1.7-1.2-2.9c-0.1-1.3,0.3-2.4,1.2-3.3c0.9-0.8,2.1-1.3,3.6-1.4
		c1.6-0.1,2.9,0.3,3.9,1.1c1,0.8,1.5,1.9,1.6,3.2l0.1,1.1c0,0.4,0.2,0.6,0.6,0.5l4.7-0.4c0.2,0,0.3-0.1,0.4-0.2
		c0.1-0.1,0.2-0.3,0.2-0.5l0-0.8c-0.1-1.9-0.7-3.7-1.7-5.1c-1-1.5-2.4-2.6-4.2-3.3c-1.8-0.7-3.7-1.1-6-1c-3.3,0.2-5.9,1.2-7.8,3
		c-1.9,1.9-2.8,4.2-2.6,7.1c0.1,1.5,0.4,2.8,1,3.9c0.6,1.1,1.2,1.9,2,2.6s1.7,1.4,3,2.2c1.2,0.8,2.2,1.5,2.8,2.1
		c0.6,0.6,0.9,1.4,1,2.3l0.1,1.7c0,0.2,0.1,0.3,0.2,0.4c0.1,0.1,0.3,0.2,0.4,0.2L159.4,100.5z M157.7,111.7c1.1-0.1,1.9-0.4,2.6-1.2
		c0.6-0.7,0.9-1.6,0.9-2.7c-0.1-1.1-0.4-1.9-1.2-2.5c-0.7-0.6-1.6-0.9-2.7-0.9c-1.1,0.1-1.9,0.4-2.5,1.1c-0.6,0.7-0.9,1.6-0.9,2.6
		c0.1,1.1,0.4,1.9,1.2,2.6C155.8,111.4,156.7,111.7,157.7,111.7z"/>
	<path class="st26" d="M154.6,112c2.1,0.8,4.4-0.2,5.2-2.3c0.8-2.1-0.2-4.4-2.3-5.2c-2.1-0.8-4.4,0.2-5.2,2.3
		C151.5,108.8,152.5,111.2,154.6,112z M154.7,111.6c-1.9-0.7-2.8-2.8-2.1-4.6c0.7-1.9,2.8-2.8,4.6-2.1c1.9,0.7,2.8,2.8,2.1,4.6
		C158.7,111.4,156.6,112.3,154.7,111.6z"/>
</g>
<path class="st27" d="M134.9,109.1c-0.8,0-1.5-0.7-1.5-1.5c0-0.8,0.7-1.5,1.5-1.5c0.8,0,1.5,0.7,1.5,1.5
	C136.4,108.5,135.7,109.1,134.9,109.1z"/>
<path class="st26" d="M134.7,129.2c-1.2,0-2.2-1-2.2-2.2c0-1.2,1-2.2,2.2-2.2c1.2,0,2.2,1,2.2,2.2
	C136.9,128.2,135.9,129.2,134.7,129.2z"/>
<path class="st28" d="M133.4,129.2c-1.2,0-2.2-1-2.2-2.2c0-1.2,1-2.2,2.2-2.2c1.2,0,2.2,1,2.2,2.2
	C135.6,128.2,134.6,129.2,133.4,129.2z"/>
<path class="st29" d="M136.1,109.3c-1,0-1.8-0.8-1.8-1.8c0-1,0.8-1.8,1.8-1.8c1,0,1.8,0.8,1.8,1.8
	C137.9,108.5,137.1,109.3,136.1,109.3z"/>
<path class="st29" d="M164.1,133.2v-4.3h3.8v-3.7h-0.6v3.1h-3.8v4.3h-3.9v5h0.6v-4.4H164.1z"/>
<path class="st26" d="M76.4,133.9v-4.2h-3.7v-3.6h0.6v3h3.7v4.2h3.8v4.8h-0.6v-4.3H76.4z"/>
</svg>
